<svg id="Capa_1" enable-background="new 0 0 509.391 509.391" height="512" viewBox="0 0 509.391 509.391" width="512" xmlns="http://www.w3.org/2000/svg"><g><path d="m285.53 156.028 56.777-87.995c9.345-14.483-1.984-34.137-17.886-31.029l-12.294 2.403c-5.033.984-10.21-.424-14.245-3.875l-31.941-27.316c-7.187-6.146-17.413-5.446-23.851 1.633l-21.177 23.284c-4.421 4.861-10.815 6.861-16.902 5.287l-19.079-4.936c-15.763-4.078-28.061 14.959-19.367 29.98l54.23 93.694c-82.703 24.352-145.095 130.85-145.095 216.702 0 97.574 80.587 131.51 179.995 131.51s179.995-33.935 179.995-131.51c0-87.254-64.444-195.836-149.16-217.832z" fill="#eaa895"/><g fill="#f9fbfc"><path d="m415.047 292.613c-1.728 0-3.129 1.401-3.129 3.13 0 1.728 1.401 3.129 3.129 3.129s3.129-1.401 3.129-3.129-1.401-3.13-3.129-3.13z"/><path d="m415.047 312.788c-1.728 0-3.129 1.401-3.129 3.13s1.401 3.129 3.129 3.129 3.129-1.401 3.129-3.129-1.401-3.13-3.129-3.13z"/><path d="m425.514 322.496c-1.728 0-3.129 1.401-3.129 3.129 0 1.729 1.401 3.13 3.129 3.13s3.13-1.401 3.13-3.13c0-1.727-1.401-3.129-3.13-3.129z"/><path d="m415.047 332.964c-1.728 0-3.129 1.401-3.129 3.13 0 1.728 1.401 3.13 3.129 3.13s3.129-1.401 3.129-3.13-1.401-3.13-3.129-3.13z"/><path d="m425.514 342.671c-1.728 0-3.129 1.401-3.129 3.13 0 1.728 1.401 3.129 3.129 3.129s3.13-1.401 3.13-3.129-1.401-3.13-3.13-3.13z"/><path d="m415.047 353.139c-1.728 0-3.129 1.401-3.129 3.129 0 1.729 1.401 3.13 3.129 3.13s3.129-1.401 3.129-3.13c0-1.728-1.401-3.129-3.129-3.129z"/><path d="m425.514 362.847c-1.728 0-3.129 1.401-3.129 3.13 0 1.728 1.401 3.129 3.129 3.129s3.13-1.401 3.13-3.129c0-1.729-1.401-3.13-3.13-3.13z"/><path d="m415.047 373.314c-1.728 0-3.129 1.401-3.129 3.129s1.401 3.13 3.129 3.13 3.129-1.401 3.129-3.13c0-1.728-1.401-3.129-3.129-3.129z"/><path d="m425.514 383.022c-1.728 0-3.129 1.401-3.129 3.13s1.401 3.129 3.129 3.129 3.13-1.401 3.13-3.129c0-1.729-1.401-3.13-3.13-3.13z"/><path d="m415.047 393.489c-1.728 0-3.129 1.401-3.129 3.129s1.401 3.13 3.129 3.13 3.129-1.401 3.129-3.13c0-1.728-1.401-3.129-3.129-3.129z"/><path d="m425.514 403.197c-1.728 0-3.129 1.401-3.129 3.13 0 1.728 1.401 3.13 3.129 3.13s3.13-1.401 3.13-3.13-1.401-3.13-3.13-3.13z"/><path d="m415.047 413.664c-1.728 0-3.129 1.401-3.129 3.129s1.401 3.13 3.129 3.13 3.129-1.401 3.129-3.13c0-1.728-1.401-3.129-3.129-3.129z"/><path d="m415.047 433.839c-1.728 0-3.129 1.401-3.129 3.129s1.401 3.13 3.129 3.13 3.129-1.401 3.129-3.13c0-1.727-1.401-3.129-3.129-3.129z"/><path d="m394.872 252.263c-1.728 0-3.129 1.401-3.129 3.13 0 1.728 1.401 3.129 3.129 3.129s3.129-1.401 3.129-3.129c0-1.729-1.401-3.13-3.129-3.13z"/><path d="m394.872 278.697c1.728 0 3.129-1.401 3.129-3.129s-1.401-3.13-3.129-3.13-3.129 1.401-3.129 3.13c-.001 1.728 1.401 3.129 3.129 3.129z"/><path d="m405.339 282.146c-1.728 0-3.13 1.401-3.13 3.129 0 1.729 1.401 3.13 3.13 3.13s3.129-1.401 3.129-3.13c.001-1.728-1.4-3.129-3.129-3.129z"/><path d="m394.872 298.872c1.728 0 3.129-1.401 3.129-3.129s-1.401-3.13-3.129-3.13-3.129 1.401-3.129 3.13c-.001 1.728 1.401 3.129 3.129 3.129z"/><path d="m405.339 302.321c-1.728 0-3.13 1.401-3.13 3.129 0 1.729 1.401 3.13 3.13 3.13s3.129-1.401 3.129-3.13c.001-1.728-1.4-3.129-3.129-3.129z"/><path d="m394.872 319.047c1.728 0 3.129-1.401 3.129-3.129s-1.401-3.13-3.129-3.13-3.129 1.401-3.129 3.13c-.001 1.729 1.401 3.129 3.129 3.129z"/><path d="m405.339 322.496c-1.728 0-3.13 1.401-3.13 3.129 0 1.729 1.401 3.13 3.13 3.13s3.129-1.401 3.129-3.13c.001-1.727-1.4-3.129-3.129-3.129z"/><path d="m394.872 339.223c1.728 0 3.129-1.401 3.129-3.13s-1.401-3.13-3.129-3.13-3.129 1.401-3.129 3.13c-.001 1.729 1.401 3.13 3.129 3.13z"/><path d="m405.339 342.671c-1.728 0-3.13 1.401-3.13 3.13 0 1.728 1.401 3.129 3.13 3.129s3.129-1.401 3.129-3.129c.001-1.728-1.4-3.13-3.129-3.13z"/><path d="m394.872 359.398c1.728 0 3.129-1.401 3.129-3.13 0-1.728-1.401-3.129-3.129-3.129s-3.129 1.401-3.129 3.129c-.001 1.729 1.401 3.13 3.129 3.13z"/><path d="m405.339 362.847c-1.728 0-3.13 1.401-3.13 3.13 0 1.728 1.401 3.129 3.13 3.129s3.129-1.401 3.129-3.129c.001-1.729-1.4-3.13-3.129-3.13z"/><path d="m394.872 379.573c1.728 0 3.129-1.401 3.129-3.13 0-1.728-1.401-3.129-3.129-3.129s-3.129 1.401-3.129 3.129c-.001 1.729 1.401 3.13 3.129 3.13z"/><path d="m405.339 383.022c-1.728 0-3.13 1.401-3.13 3.13s1.401 3.129 3.13 3.129 3.129-1.401 3.129-3.129c.001-1.729-1.4-3.13-3.129-3.13z"/><path d="m394.872 399.748c1.728 0 3.129-1.401 3.129-3.13 0-1.728-1.401-3.129-3.129-3.129s-3.129 1.401-3.129 3.129c-.001 1.729 1.401 3.13 3.129 3.13z"/><path d="m405.339 403.197c-1.728 0-3.13 1.401-3.13 3.13 0 1.728 1.401 3.13 3.13 3.13s3.129-1.401 3.129-3.13c.001-1.729-1.4-3.13-3.129-3.13z"/><path d="m394.872 419.923c1.728 0 3.129-1.401 3.129-3.13 0-1.728-1.401-3.129-3.129-3.129s-3.129 1.401-3.129 3.129c-.001 1.729 1.401 3.13 3.129 3.13z"/><path d="m405.339 423.372c-1.728 0-3.13 1.401-3.13 3.129s1.401 3.129 3.13 3.129 3.129-1.401 3.129-3.129c.001-1.728-1.4-3.129-3.129-3.129z"/><path d="m394.872 440.098c1.728 0 3.129-1.401 3.129-3.13 0-1.728-1.401-3.129-3.129-3.129s-3.129 1.401-3.129 3.129c-.001 1.729 1.401 3.13 3.129 3.13z"/><path d="m405.339 449.806c1.728 0 3.129-1.401 3.129-3.13s-1.401-3.129-3.129-3.129-3.13 1.401-3.13 3.129 1.402 3.13 3.13 3.13z"/><path d="m394.872 460.273c1.728 0 3.129-1.401 3.129-3.129 0-1.729-1.401-3.13-3.129-3.13s-3.129 1.401-3.129 3.13c-.001 1.728 1.401 3.129 3.129 3.129z"/><path d="m374.697 232.088c-1.728 0-3.129 1.401-3.129 3.13 0 1.728 1.401 3.129 3.129 3.129s3.129-1.401 3.129-3.129c0-1.729-1.401-3.13-3.129-3.13z"/><path d="m385.164 248.055c1.728 0 3.13-1.401 3.13-3.13s-1.401-3.129-3.13-3.129-3.129 1.401-3.129 3.129 1.401 3.13 3.129 3.13z"/><path d="m374.697 252.263c-1.728 0-3.129 1.401-3.129 3.13 0 1.728 1.401 3.129 3.129 3.129s3.129-1.401 3.129-3.129c0-1.729-1.401-3.13-3.129-3.13z"/><path d="m385.164 268.23c1.728 0 3.13-1.401 3.13-3.13 0-1.728-1.401-3.129-3.13-3.129s-3.129 1.401-3.129 3.129c0 1.729 1.401 3.13 3.129 3.13z"/><path d="m374.697 272.438c-1.728 0-3.129 1.401-3.129 3.13 0 1.728 1.401 3.129 3.129 3.129s3.129-1.401 3.129-3.129-1.401-3.13-3.129-3.13z"/><path d="m385.164 288.405c1.728 0 3.13-1.401 3.13-3.13 0-1.728-1.401-3.129-3.13-3.129s-3.129 1.401-3.129 3.129c0 1.729 1.401 3.13 3.129 3.13z"/><path d="m385.164 308.58c1.728 0 3.13-1.401 3.13-3.13 0-1.728-1.401-3.129-3.13-3.129s-3.129 1.401-3.129 3.129c0 1.729 1.401 3.13 3.129 3.13z"/><path d="m374.701 298.854c1.728 0 3.129-1.401 3.129-3.13 0-1.728-1.401-3.129-3.129-3.129s-3.129 1.401-3.129 3.129c0 1.729 1.401 3.13 3.129 3.13z"/><path d="m385.164 328.755c1.728 0 3.13-1.401 3.13-3.13 0-1.728-1.401-3.129-3.13-3.129s-3.129 1.401-3.129 3.129c0 1.729 1.401 3.13 3.129 3.13z"/><path d="m385.164 348.93c1.728 0 3.13-1.401 3.13-3.129s-1.401-3.13-3.13-3.13-3.129 1.401-3.129 3.13c0 1.728 1.401 3.129 3.129 3.129z"/><path d="m374.628 359.393c1.728 0 3.13-1.401 3.13-3.129s-1.401-3.13-3.13-3.13-3.129 1.401-3.129 3.13c-.001 1.728 1.4 3.129 3.129 3.129z"/><path d="m385.164 369.105c1.728 0 3.13-1.401 3.13-3.129s-1.401-3.13-3.13-3.13-3.129 1.401-3.129 3.13c0 1.728 1.401 3.129 3.129 3.129z"/><path d="m374.697 373.314c-1.728 0-3.129 1.401-3.129 3.129s1.401 3.13 3.129 3.13 3.129-1.401 3.129-3.13c0-1.728-1.401-3.129-3.129-3.129z"/><path d="m364.971 382.967c-1.728 0-3.129 1.401-3.129 3.129 0 1.729 1.401 3.13 3.129 3.13s3.129-1.401 3.129-3.13c0-1.728-1.401-3.129-3.129-3.129z"/><path d="m385.164 389.28c1.728 0 3.13-1.401 3.13-3.129s-1.401-3.13-3.13-3.13-3.129 1.401-3.129 3.13 1.401 3.129 3.129 3.129z"/><path d="m374.697 393.489c-1.728 0-3.129 1.401-3.129 3.129s1.401 3.13 3.129 3.13 3.129-1.401 3.129-3.13c0-1.728-1.401-3.129-3.129-3.129z"/><path d="m385.164 409.456c1.728 0 3.13-1.401 3.13-3.13s-1.401-3.13-3.13-3.13-3.129 1.401-3.129 3.13 1.401 3.13 3.129 3.13z"/><path d="m374.697 413.664c-1.728 0-3.129 1.401-3.129 3.129s1.401 3.13 3.129 3.13 3.129-1.401 3.129-3.13c0-1.728-1.401-3.129-3.129-3.129z"/><path d="m385.164 429.631c1.728 0 3.13-1.401 3.13-3.129 0-1.729-1.401-3.129-3.13-3.129s-3.129 1.401-3.129 3.129 1.401 3.129 3.129 3.129z"/><path d="m374.697 433.839c-1.728 0-3.129 1.401-3.129 3.129s1.401 3.13 3.129 3.13 3.129-1.401 3.129-3.13c0-1.727-1.401-3.129-3.129-3.129z"/><path d="m385.164 449.806c1.728 0 3.13-1.401 3.13-3.13s-1.401-3.129-3.13-3.129-3.129 1.401-3.129 3.129 1.401 3.13 3.129 3.13z"/><path d="m374.697 454.014c-1.728 0-3.129 1.401-3.129 3.13 0 1.728 1.401 3.129 3.129 3.129s3.129-1.401 3.129-3.129-1.401-3.13-3.129-3.13z"/><path d="m385.164 469.981c1.728 0 3.13-1.401 3.13-3.13s-1.401-3.129-3.13-3.129-3.129 1.401-3.129 3.129c0 1.729 1.401 3.13 3.129 3.13z"/><path d="m374.697 474.19c-1.728 0-3.129 1.401-3.129 3.13 0 1.728 1.401 3.129 3.129 3.129.039 0 .076-.01.114-.011.845-.467 1.681-.943 2.511-1.425.316-.489.504-1.068.504-1.693 0-1.729-1.401-3.13-3.129-3.13z"/><path d="m354.522 211.913c-1.728 0-3.129 1.401-3.129 3.129 0 1.729 1.401 3.13 3.129 3.13s3.129-1.401 3.129-3.13c0-1.728-1.401-3.129-3.129-3.129z"/><path d="m361.86 224.75c0 1.729 1.401 3.13 3.129 3.13s3.129-1.401 3.129-3.13-1.401-3.13-3.129-3.13c-1.728.001-3.129 1.402-3.129 3.13z"/><path d="m364.989 248.055c1.728 0 3.129-1.401 3.129-3.13s-1.401-3.129-3.129-3.129-3.129 1.401-3.129 3.129 1.401 3.13 3.129 3.13z"/><path d="m364.989 403.197c-1.728 0-3.129 1.401-3.129 3.13 0 1.728 1.401 3.13 3.129 3.13s3.129-1.401 3.129-3.13-1.401-3.13-3.129-3.13z"/><path d="m354.522 413.664c-1.728 0-3.129 1.401-3.129 3.129s1.401 3.13 3.129 3.13 3.129-1.401 3.129-3.13c0-1.728-1.401-3.129-3.129-3.129z"/><path d="m364.989 423.372c-1.728 0-3.129 1.401-3.129 3.129s1.401 3.129 3.129 3.129 3.129-1.401 3.129-3.129-1.401-3.129-3.129-3.129z"/><path d="m354.522 433.839c-1.728 0-3.129 1.401-3.129 3.129s1.401 3.13 3.129 3.13 3.129-1.401 3.129-3.13c0-1.727-1.401-3.129-3.129-3.129z"/><path d="m364.989 443.547c-1.728 0-3.129 1.401-3.129 3.129s1.401 3.13 3.129 3.13 3.129-1.401 3.129-3.13-1.401-3.129-3.129-3.129z"/><path d="m354.522 454.014c-1.728 0-3.129 1.401-3.129 3.13 0 1.728 1.401 3.129 3.129 3.129s3.129-1.401 3.129-3.129-1.401-3.13-3.129-3.13z"/><path d="m364.989 463.722c-1.728 0-3.129 1.401-3.129 3.129s1.401 3.13 3.129 3.13 3.129-1.401 3.129-3.13c0-1.728-1.401-3.129-3.129-3.129z"/><path d="m354.522 474.19c-1.728 0-3.129 1.401-3.129 3.13 0 1.728 1.401 3.129 3.129 3.129s3.129-1.401 3.129-3.129c0-1.729-1.401-3.13-3.129-3.13z"/><path d="m347.943 204.575c0-1.729-1.401-3.129-3.129-3.129s-3.129 1.401-3.129 3.129 1.401 3.129 3.129 3.129 3.129-1.4 3.129-3.129z"/><path d="m337.481 194.849c0-1.729-1.401-3.129-3.129-3.129s-3.129 1.401-3.129 3.129 1.401 3.129 3.129 3.129c1.727 0 3.129-1.4 3.129-3.129z"/><path d="m344.814 423.372c-1.728 0-3.129 1.401-3.129 3.129s1.401 3.129 3.129 3.129 3.129-1.401 3.129-3.129-1.401-3.129-3.129-3.129z"/><path d="m334.347 433.839c-1.728 0-3.129 1.401-3.129 3.129s1.401 3.13 3.129 3.13 3.129-1.401 3.129-3.13c0-1.727-1.401-3.129-3.129-3.129z"/><path d="m344.814 443.547c-1.728 0-3.129 1.401-3.129 3.129s1.401 3.13 3.129 3.13 3.129-1.401 3.129-3.13-1.401-3.129-3.129-3.129z"/><path d="m334.347 454.014c-1.728 0-3.129 1.401-3.129 3.13 0 1.728 1.401 3.129 3.129 3.129s3.129-1.401 3.129-3.129-1.401-3.13-3.129-3.13z"/><path d="m344.814 463.722c-1.728 0-3.129 1.401-3.129 3.129s1.401 3.13 3.129 3.13 3.129-1.401 3.129-3.13c0-1.728-1.401-3.129-3.129-3.129z"/><path d="m334.347 474.19c-1.728 0-3.129 1.401-3.129 3.13 0 1.728 1.401 3.129 3.129 3.129s3.129-1.401 3.129-3.129c0-1.729-1.401-3.13-3.129-3.13z"/><path d="m344.814 483.897c-1.728 0-3.129 1.401-3.129 3.129s1.401 3.13 3.129 3.13 3.129-1.401 3.129-3.13c0-1.727-1.401-3.129-3.129-3.129z"/><path d="m324.639 443.547c-1.728 0-3.129 1.401-3.129 3.129s1.401 3.13 3.129 3.13 3.13-1.401 3.13-3.13-1.402-3.129-3.13-3.129z"/><path d="m314.171 454.014c-1.728 0-3.129 1.401-3.129 3.13 0 1.728 1.401 3.129 3.129 3.129s3.129-1.401 3.129-3.129c.001-1.728-1.4-3.13-3.129-3.13z"/><path d="m324.639 463.722c-1.728 0-3.129 1.401-3.129 3.129s1.401 3.13 3.129 3.13 3.13-1.401 3.13-3.13c-.001-1.728-1.402-3.129-3.13-3.129z"/><path d="m314.171 474.19c-1.728 0-3.129 1.401-3.129 3.13 0 1.728 1.401 3.129 3.129 3.129s3.129-1.401 3.129-3.129c.001-1.729-1.4-3.13-3.129-3.13z"/><path d="m324.639 483.897c-1.728 0-3.129 1.401-3.129 3.129s1.401 3.13 3.129 3.13 3.13-1.401 3.13-3.13c-.001-1.727-1.402-3.129-3.13-3.129z"/><path d="m317.301 497.494c0-1.729-1.401-3.13-3.129-3.13s-3.129 1.401-3.129 3.13c0 1.715 1.38 3.104 3.09 3.125.369-.064.738-.129 1.106-.195 1.2-.437 2.062-1.578 2.062-2.93z"/><path d="m304.464 443.547c-1.728 0-3.129 1.401-3.129 3.129s1.401 3.13 3.129 3.13 3.13-1.401 3.13-3.13-1.402-3.129-3.13-3.129z"/><path d="m314.19 433.821c-1.728 0-3.13 1.401-3.13 3.129 0 1.729 1.401 3.13 3.13 3.13s3.129-1.401 3.129-3.13c0-1.728-1.401-3.129-3.129-3.129z"/><path d="m293.996 454.014c-1.728 0-3.129 1.401-3.129 3.13 0 1.728 1.401 3.129 3.129 3.129s3.129-1.401 3.129-3.129c.001-1.728-1.4-3.13-3.129-3.13z"/><path d="m304.464 463.722c-1.728 0-3.129 1.401-3.129 3.129s1.401 3.13 3.129 3.13 3.13-1.401 3.13-3.13c-.001-1.728-1.402-3.129-3.13-3.129z"/><path d="m293.996 474.19c-1.728 0-3.129 1.401-3.129 3.13 0 1.728 1.401 3.129 3.129 3.129s3.129-1.401 3.129-3.129c.001-1.729-1.4-3.13-3.129-3.13z"/><path d="m304.464 483.897c-1.728 0-3.129 1.401-3.129 3.129s1.401 3.13 3.129 3.13 3.13-1.401 3.13-3.13c-.001-1.727-1.402-3.129-3.13-3.129z"/><path d="m293.996 494.365c-1.728 0-3.129 1.401-3.129 3.13 0 1.728 1.401 3.129 3.129 3.129s3.129-1.401 3.129-3.129c.001-1.729-1.4-3.13-3.129-3.13z"/><path d="m273.821 454.014c-1.728 0-3.129 1.401-3.129 3.13 0 1.728 1.401 3.129 3.129 3.129s3.129-1.401 3.129-3.129c.001-1.728-1.4-3.13-3.129-3.13z"/><path d="m284.289 463.722c-1.728 0-3.129 1.401-3.129 3.129s1.401 3.13 3.129 3.13 3.129-1.401 3.129-3.13c0-1.728-1.401-3.129-3.129-3.129z"/><path d="m273.821 474.19c-1.728 0-3.129 1.401-3.129 3.13 0 1.728 1.401 3.129 3.129 3.129s3.129-1.401 3.129-3.129c.001-1.729-1.4-3.13-3.129-3.13z"/><path d="m284.289 483.897c-1.728 0-3.129 1.401-3.129 3.129s1.401 3.13 3.129 3.13 3.129-1.401 3.129-3.13c0-1.727-1.401-3.129-3.129-3.129z"/><path d="m273.821 494.365c-1.728 0-3.129 1.401-3.129 3.13 0 1.728 1.401 3.129 3.129 3.129s3.129-1.401 3.129-3.129c.001-1.729-1.4-3.13-3.129-3.13z"/><path d="m264.113 463.722c-1.728 0-3.13 1.401-3.13 3.129s1.401 3.13 3.13 3.13 3.129-1.401 3.129-3.13c.001-1.728-1.4-3.129-3.129-3.129z"/><path d="m253.651 453.996c-1.728 0-3.13 1.401-3.13 3.129 0 1.729 1.401 3.13 3.13 3.13s3.129-1.401 3.129-3.13c0-1.728-1.401-3.129-3.129-3.129z"/><path d="m253.646 474.19c-1.728 0-3.129 1.401-3.129 3.13 0 1.728 1.401 3.129 3.129 3.129s3.13-1.401 3.13-3.129c0-1.729-1.402-3.13-3.13-3.13z"/><path d="m264.113 483.897c-1.728 0-3.13 1.401-3.13 3.129s1.401 3.13 3.13 3.13 3.129-1.401 3.129-3.13c.001-1.727-1.4-3.129-3.129-3.129z"/><path d="m253.646 494.365c-1.728 0-3.129 1.401-3.129 3.13 0 1.728 1.401 3.129 3.129 3.129s3.13-1.401 3.13-3.129c0-1.729-1.402-3.13-3.13-3.13z"/><path d="m243.938 463.722c-1.728 0-3.129 1.401-3.129 3.129s1.401 3.13 3.129 3.13 3.129-1.401 3.129-3.13c.001-1.728-1.4-3.129-3.129-3.129z"/><path d="m233.471 474.19c-1.728 0-3.129 1.401-3.129 3.13 0 1.728 1.401 3.129 3.129 3.129s3.129-1.401 3.129-3.129c0-1.729-1.401-3.13-3.129-3.13z"/><path d="m243.938 483.897c-1.728 0-3.129 1.401-3.129 3.129s1.401 3.13 3.129 3.13 3.129-1.401 3.129-3.13c.001-1.727-1.4-3.129-3.129-3.129z"/><path d="m233.471 494.365c-1.728 0-3.129 1.401-3.129 3.13 0 1.728 1.401 3.129 3.129 3.129s3.129-1.401 3.129-3.129c0-1.729-1.401-3.13-3.129-3.13z"/><path d="m223.763 463.722c-1.728 0-3.13 1.401-3.13 3.129s1.401 3.13 3.13 3.13c1.728 0 3.129-1.401 3.129-3.13.001-1.728-1.401-3.129-3.129-3.129z"/><path d="m213.296 474.19c-1.728 0-3.129 1.401-3.129 3.13 0 1.728 1.401 3.129 3.129 3.129s3.129-1.401 3.129-3.129c0-1.729-1.401-3.13-3.129-3.13z"/><path d="m223.763 483.897c-1.728 0-3.13 1.401-3.13 3.129s1.401 3.13 3.13 3.13c1.728 0 3.129-1.401 3.129-3.13.001-1.727-1.401-3.129-3.129-3.129z"/><path d="m213.296 494.365c-1.728 0-3.129 1.401-3.129 3.13 0 1.728 1.401 3.129 3.129 3.129s3.129-1.401 3.129-3.129c0-1.729-1.401-3.13-3.129-3.13z"/><path d="m203.588 463.722c-1.728 0-3.13 1.401-3.13 3.129s1.401 3.13 3.13 3.13c1.728 0 3.129-1.401 3.129-3.13.001-1.728-1.401-3.129-3.129-3.129z"/><path d="m193.121 474.19c-1.728 0-3.129 1.401-3.129 3.13 0 1.728 1.401 3.129 3.129 3.129s3.129-1.401 3.129-3.129c0-1.729-1.401-3.13-3.129-3.13z"/><path d="m203.588 483.897c-1.728 0-3.13 1.401-3.13 3.129s1.401 3.13 3.13 3.13c1.728 0 3.129-1.401 3.129-3.13.001-1.727-1.401-3.129-3.129-3.129z"/><path d="m196.25 497.494c0-1.729-1.401-3.13-3.129-3.13s-3.129 1.401-3.129 3.13c0 .95.433 1.791 1.101 2.365 1.028.197 2.068.376 3.105.562 1.195-.44 2.052-1.579 2.052-2.927z"/><path d="m183.413 463.722c-1.728 0-3.129 1.401-3.129 3.129s1.401 3.13 3.129 3.13 3.13-1.401 3.13-3.13c-.001-1.728-1.402-3.129-3.13-3.129z"/><path d="m172.946 474.19c-1.728 0-3.129 1.401-3.129 3.13 0 1.728 1.401 3.129 3.129 3.129s3.13-1.401 3.13-3.129c-.001-1.729-1.402-3.13-3.13-3.13z"/><path d="m183.413 483.897c-1.728 0-3.129 1.401-3.129 3.129s1.401 3.13 3.129 3.13 3.13-1.401 3.13-3.13c-.001-1.727-1.402-3.129-3.13-3.129z"/><path d="m163.238 463.722c-1.728 0-3.13 1.401-3.13 3.129s1.401 3.13 3.13 3.13c1.728 0 3.13-1.401 3.13-3.13-.001-1.728-1.402-3.129-3.13-3.129z"/><path d="m152.701 453.996c-1.728 0-3.13 1.401-3.13 3.129 0 1.729 1.401 3.13 3.13 3.13 1.728 0 3.129-1.401 3.129-3.13.001-1.728-1.4-3.129-3.129-3.129z"/><path d="m152.771 474.19c-1.728 0-3.13 1.401-3.13 3.13 0 1.728 1.401 3.129 3.13 3.129 1.728 0 3.129-1.401 3.129-3.129 0-1.729-1.401-3.13-3.129-3.13z"/><path d="m163.238 483.897c-1.728 0-3.13 1.401-3.13 3.129s1.401 3.13 3.13 3.13c1.728 0 3.13-1.401 3.13-3.13-.001-1.727-1.402-3.129-3.13-3.129z"/><path d="m129.466 457.144c0 1.728 1.401 3.129 3.129 3.129s3.129-1.401 3.129-3.129c0-1.729-1.401-3.13-3.129-3.13s-3.129 1.402-3.129 3.13z"/><path d="m139.933 466.852c0 1.728 1.401 3.13 3.129 3.13s3.13-1.401 3.13-3.13-1.401-3.129-3.13-3.129-3.129 1.4-3.129 3.129z"/><path d="m135.725 477.319c0-1.728-1.401-3.13-3.129-3.13s-3.129 1.401-3.129 3.13c0 .051.013.099.015.149 1.48.902 2.985 1.781 4.513 2.636 1.022-.515 1.73-1.562 1.73-2.785z"/><path d="m112.42 460.273c1.728 0 3.129-1.401 3.129-3.129 0-1.729-1.401-3.13-3.129-3.13s-3.129 1.401-3.129 3.13c0 1.728 1.401 3.129 3.129 3.129z"/><path d="m102.711 449.809c1.728 0 3.13-1.401 3.13-3.129 0-1.729-1.401-3.13-3.13-3.13-1.728 0-3.129 1.401-3.129 3.13 0 1.728 1.401 3.129 3.129 3.129z"/><path d="m119.758 466.852c0 1.728 1.401 3.13 3.13 3.13s3.13-1.401 3.13-3.13-1.401-3.129-3.13-3.129-3.13 1.4-3.13 3.129z"/></g><ellipse cx="253.231" cy="345.395" fill="#e9c278" rx="85.88" ry="85.881" transform="matrix(.707 -.707 .707 .707 -170.062 280.225)"/><g fill="#31373d"><path d="m253.231 435.296c-49.571 0-89.901-40.33-89.901-89.9 0-49.572 40.329-89.901 89.901-89.901 49.571 0 89.901 40.33 89.901 89.901 0 49.57-40.33 89.9-89.901 89.9zm0-171.761c-45.138 0-81.86 36.722-81.86 81.861 0 45.137 36.722 81.859 81.86 81.859s81.86-36.722 81.86-81.859c0-45.138-36.723-81.861-81.86-81.861z"/><path d="m253.231 413.808c-37.723 0-68.413-30.69-68.413-68.412 0-37.724 30.69-68.413 68.413-68.413s68.413 30.69 68.413 68.413c0 37.722-30.69 68.412-68.413 68.412zm0-128.785c-33.289 0-60.372 27.083-60.372 60.373 0 33.289 27.083 60.372 60.372 60.372 33.29 0 60.372-27.083 60.372-60.372 0-33.29-27.083-60.373-60.372-60.373z"/><path d="m255.274 380.394h-4.087c-8.241 0-14.945-6.704-14.945-14.944v-40.109c0-8.24 6.704-14.944 14.945-14.944h4.087c8.24 0 14.944 6.704 14.944 14.944v40.109c.001 8.24-6.703 14.944-14.944 14.944zm-4.087-61.956c-3.807 0-6.904 3.097-6.904 6.903v40.109c0 3.806 3.097 6.903 6.904 6.903h4.087c3.807 0 6.904-3.097 6.904-6.903v-40.109c0-3.806-3.097-6.903-6.904-6.903z"/></g><path d="m306.966 168.761h-110.386c-9.316 0-16.868-7.552-16.868-16.868v-6.515c0-9.316 7.552-16.868 16.868-16.868h110.386c9.316 0 16.868 7.552 16.868 16.868v6.515c0 9.316-7.552 16.868-16.868 16.868z" fill="#e9c278"/><path d="m385.183 223.932c-17.335-23.024-36.959-41.326-58.327-54.399-1.691-1.035-3.389-2.013-5.09-2.969 3.76-3.793 6.089-9.007 6.089-14.757v-6.343c0-10.345-7.536-18.943-17.403-20.646l35.234-54.606c5.49-8.508 5.363-19.428-.322-27.819-5.011-7.398-13.332-10.974-21.713-9.335l-12.294 2.403c-3.813.746-7.771-.343-10.861-2.985l-31.942-27.315c-8.861-7.576-21.517-6.724-29.438 1.983l-21.177 23.284c-3.43 3.773-8.262 5.3-12.921 4.1l-19.079-4.937c-8.291-2.143-16.786.929-22.172 8.017-6.141 8.085-6.802 19.025-1.682 27.87l34.169 59.035c-11.374.223-20.562 9.527-20.562 20.953v6.343c0 6.864 3.329 12.949 8.441 16.778-.533.317-1.067.622-1.599.947-21.368 13.073-40.993 31.375-58.327 54.399-33.517 44.518-53.527 100.565-53.527 149.927 0 47.168 18.365 82.744 54.585 105.739 31.135 19.768 74.682 29.791 129.431 29.791s98.296-10.023 129.431-29.791c36.22-22.996 54.585-58.571 54.585-105.739-.001-49.362-20.012-105.409-53.529-149.928zm-215.013-181.461c2.716-3.575 6.493-5.515 10.508-5.515 1.07 0 2.158.137 3.247.419l19.079 4.936c7.488 1.938 15.49-.545 20.883-6.473l21.177-23.284c5.011-5.507 12.692-6.045 18.264-1.282l31.942 27.315c4.968 4.248 11.396 5.986 17.628 4.765l12.295-2.403c5.24-1.026 10.294 1.2 13.513 5.953 3.874 5.718 3.961 13.157.223 18.95l-37.836 58.639h-95.561l-36.489-63.042c-3.49-6.032-3.048-13.482 1.127-18.978zm13.563 102.994c0-7.131 5.802-12.933 12.933-12.933h110.214c7.131 0 12.933 5.802 12.933 12.933v6.343c0 7.132-5.802 12.934-12.933 12.934h-110.214c-7.131 0-12.933-5.802-12.933-12.934zm196.083 327.346c-29.826 18.937-71.922 28.538-125.121 28.538s-95.295-9.601-125.121-28.538c-33.744-21.424-50.854-54.716-50.854-98.951 0-76.045 48.848-165.146 114.985-201.312.97.138 1.953.234 2.96.234h110.215c2.45 0 4.793-.444 6.981-1.22 67.062 35.513 116.809 125.556 116.809 202.298 0 44.235-17.11 77.527-50.854 98.951z" fill="#31373d"/></g></svg>